<svg xmlns="http://www.w3.org/2000/svg" xmlns:xlink="http://www.w3.org/1999/xlink"
aria-label="Minecraft" role="img"
viewBox="0 0 512 512" fill="none" stroke-width="2"><path
d="m0 0H512V512H0"
fill="#111"/><use xlink:href="#a" transform="matrix(-1 0 0 1 513 0)" opacity=".5"/><g id="a" transform="matrix(9.5 5.5 0 11 76 142)"><path fill="#432" d="M1 1h18v18H1"/><path stroke="#864" d="M14 9v5h4v2H8v2H4V15"/><path stroke="#643" d="M2 17V14H6V12H9m4 0h3v3m1 3h2m-1-7V7M12 7v9h2v2H9M5 18H3m0-8H1"/><path stroke="#a75" d="M1 14h4m2 0h4m6-2h2"/><path stroke="#593" d="M4 9V6H8V4h6V6h2V2H8V9"/><path stroke="#6a4" d="M3 2h4m4 0h2m0 2h2m3-3v4"/><path stroke="#7c5" d="M9 6h2M5 4h4"/><path stroke="#9c6" d="M2 1V4H5m10-2h2"/><path stroke="#555" d="M9 10h2"/></g><g transform="matrix(9.51 5.5 -9.5 5.5 256 49)"><path fill="#7b4" d="M1 1h18v18H1"/><path stroke="#8c5" d="M1 16H8v2h5m3-1V10h2v2H14V3m3-1h2m0 4H17M13 6H8V2H4V8H2v4H7M7 8H5m5-1v7h3"/><path stroke="#ad7" d="M1 2H3M5 2H7M9 2h6m0 4H13m0 2H11m8 2H17m-2 0H13m-2 0H7M5 10H1m5 5v4m7-5h4"/></g></svg>